<svg width="400" height="400" viewBox="0 0 400 400" fill="none" xmlns="http://www.w3.org/2000/svg">
<path fill-rule="evenodd" clip-rule="evenodd" d="M400 200C400 250.722 381.118 297.035 350 332.291V207C350 124.157 282.843 56.9997 200 56.9997C117.157 56.9997 50 124.157 50 207V332.291C18.8818 297.035 0 250.722 0 200C0 89.5431 89.5431 0 200 0C310.457 0 400 89.5431 400 200ZM300 207V373.244C289.56 379.283 278.523 384.405 267 388.501V210C267 204.477 262.523 200 257 200H254.7H248.034C244.537 200 241.293 201.827 239.481 204.819L202.143 266.461C201.169 268.07 198.835 268.067 197.864 266.457L160.716 204.837C158.906 201.835 155.657 200 152.152 200H143C137.477 200 133 204.477 133 210V388.501C121.477 384.405 110.44 379.283 100 373.244V207C100 151.771 144.772 107 200 107C255.228 107 300 151.771 300 207ZM155.98 395.14C155.993 394.928 156 394.715 156 394.5V248.982C156 246.45 159.332 245.522 160.641 247.691L197.876 309.4C198.325 310.145 199.132 310.6 200.001 310.6C200.869 310.6 201.675 310.146 202.124 309.403L239.361 247.866C240.671 245.701 244 246.63 244 249.16V394.5C244 394.715 244.007 394.928 244.02 395.14C229.856 398.321 215.124 400 200 400C184.876 400 170.144 398.321 155.98 395.14Z" fill="white"/>
</svg>
